<mxfile host="Electron" modified="2024-01-13T13:55:17.210Z" agent="Mozilla/5.0 (Windows NT 10.0; Win64; x64) AppleWebKit/537.36 (KHTML, like Gecko) draw.io/22.1.16 Chrome/120.0.6099.109 Electron/28.1.0 Safari/537.36" etag="O0v7qWzV7ApUvafM69In" version="22.1.16" type="device">
  <diagram name="Strona-1" id="x4iDb7SHH9YA5D9xjIFl">
    <mxGraphModel dx="1374" dy="859" grid="1" gridSize="10" guides="1" tooltips="1" connect="1" arrows="1" fold="1" page="1" pageScale="1" pageWidth="827" pageHeight="1169" math="0" shadow="0">
      <root>
        <mxCell id="0" />
        <mxCell id="1" parent="0" />
        <mxCell id="GtQeyq3_UFh-qR09QG_a-2" value="Słabi wspierający" style="rounded=0;whiteSpace=wrap;html=1;" vertex="1" parent="1">
          <mxGeometry x="79" y="39" width="120" height="100" as="geometry" />
        </mxCell>
        <mxCell id="GtQeyq3_UFh-qR09QG_a-3" value="Silni wspierający" style="rounded=0;whiteSpace=wrap;html=1;" vertex="1" parent="1">
          <mxGeometry x="199" y="39" width="120" height="100" as="geometry" />
        </mxCell>
        <mxCell id="GtQeyq3_UFh-qR09QG_a-4" value="Słabi oponenci" style="rounded=0;whiteSpace=wrap;html=1;" vertex="1" parent="1">
          <mxGeometry x="79" y="139" width="120" height="100" as="geometry" />
        </mxCell>
        <mxCell id="GtQeyq3_UFh-qR09QG_a-5" value="Silni oponenci" style="rounded=0;whiteSpace=wrap;html=1;" vertex="1" parent="1">
          <mxGeometry x="199" y="139" width="120" height="100" as="geometry" />
        </mxCell>
        <mxCell id="GtQeyq3_UFh-qR09QG_a-6" value="" style="endArrow=classic;startArrow=classic;html=1;rounded=0;" edge="1" parent="1">
          <mxGeometry width="50" height="50" relative="1" as="geometry">
            <mxPoint x="89" y="248" as="sourcePoint" />
            <mxPoint x="309" y="248" as="targetPoint" />
          </mxGeometry>
        </mxCell>
        <mxCell id="GtQeyq3_UFh-qR09QG_a-7" value="&lt;b&gt;Siła interesariusza&lt;/b&gt;" style="edgeLabel;html=1;align=center;verticalAlign=top;resizable=0;points=[];spacing=2;" vertex="1" connectable="0" parent="GtQeyq3_UFh-qR09QG_a-6">
          <mxGeometry relative="1" as="geometry">
            <mxPoint as="offset" />
          </mxGeometry>
        </mxCell>
        <mxCell id="GtQeyq3_UFh-qR09QG_a-10" value="" style="endArrow=classic;html=1;rounded=0;" edge="1" parent="1">
          <mxGeometry width="50" height="50" relative="1" as="geometry">
            <mxPoint x="59" y="129" as="sourcePoint" />
            <mxPoint x="59" y="49" as="targetPoint" />
          </mxGeometry>
        </mxCell>
        <mxCell id="GtQeyq3_UFh-qR09QG_a-21" value="&lt;b&gt;Wsparcie&lt;/b&gt;" style="edgeLabel;html=1;align=center;verticalAlign=bottom;resizable=0;points=[];horizontal=0;" vertex="1" connectable="0" parent="GtQeyq3_UFh-qR09QG_a-10">
          <mxGeometry relative="1" as="geometry">
            <mxPoint as="offset" />
          </mxGeometry>
        </mxCell>
        <mxCell id="GtQeyq3_UFh-qR09QG_a-11" value="" style="endArrow=none;html=1;rounded=0;startArrow=classic;startFill=1;endFill=0;" edge="1" parent="1">
          <mxGeometry width="50" height="50" relative="1" as="geometry">
            <mxPoint x="59" y="229" as="sourcePoint" />
            <mxPoint x="59" y="149" as="targetPoint" />
          </mxGeometry>
        </mxCell>
        <mxCell id="GtQeyq3_UFh-qR09QG_a-20" value="&lt;b&gt;Opozycja&lt;/b&gt;" style="edgeLabel;html=1;align=center;verticalAlign=bottom;resizable=0;points=[];horizontal=0;" vertex="1" connectable="0" parent="GtQeyq3_UFh-qR09QG_a-11">
          <mxGeometry relative="1" as="geometry">
            <mxPoint as="offset" />
          </mxGeometry>
        </mxCell>
        <mxCell id="GtQeyq3_UFh-qR09QG_a-12" value="&lt;i&gt;&lt;font style=&quot;font-size: 10px;&quot;&gt;Niska&lt;/font&gt;&lt;/i&gt;" style="text;html=1;strokeColor=none;fillColor=none;align=center;verticalAlign=middle;whiteSpace=wrap;rounded=0;" vertex="1" parent="1">
          <mxGeometry x="49" y="248" width="60" height="30" as="geometry" />
        </mxCell>
        <mxCell id="GtQeyq3_UFh-qR09QG_a-13" value="&lt;i&gt;&lt;font style=&quot;font-size: 10px;&quot;&gt;Wysoka&lt;/font&gt;&lt;/i&gt;" style="text;html=1;strokeColor=none;fillColor=none;align=center;verticalAlign=middle;whiteSpace=wrap;rounded=0;" vertex="1" parent="1">
          <mxGeometry x="269" y="248" width="60" height="30" as="geometry" />
        </mxCell>
        <mxCell id="GtQeyq3_UFh-qR09QG_a-14" value="&lt;i&gt;&lt;font style=&quot;font-size: 10px;&quot;&gt;Silna&lt;/font&gt;&lt;/i&gt;" style="text;html=1;strokeColor=none;fillColor=none;align=center;verticalAlign=middle;whiteSpace=wrap;rounded=0;" vertex="1" parent="1">
          <mxGeometry x="9" y="209" width="60" height="30" as="geometry" />
        </mxCell>
        <mxCell id="GtQeyq3_UFh-qR09QG_a-17" value="&lt;i&gt;&lt;font style=&quot;font-size: 10px;&quot;&gt;Słaba&lt;/font&gt;&lt;/i&gt;" style="text;html=1;strokeColor=none;fillColor=none;align=center;verticalAlign=middle;whiteSpace=wrap;rounded=0;" vertex="1" parent="1">
          <mxGeometry x="9" y="139" width="60" height="30" as="geometry" />
        </mxCell>
        <mxCell id="GtQeyq3_UFh-qR09QG_a-18" value="&lt;i&gt;&lt;font style=&quot;font-size: 10px;&quot;&gt;Słabe&lt;/font&gt;&lt;/i&gt;" style="text;html=1;strokeColor=none;fillColor=none;align=center;verticalAlign=middle;whiteSpace=wrap;rounded=0;" vertex="1" parent="1">
          <mxGeometry x="9" y="109" width="60" height="30" as="geometry" />
        </mxCell>
        <mxCell id="GtQeyq3_UFh-qR09QG_a-19" value="&lt;i&gt;&lt;font style=&quot;font-size: 10px;&quot;&gt;Silne&lt;/font&gt;&lt;/i&gt;" style="text;html=1;strokeColor=none;fillColor=none;align=center;verticalAlign=middle;whiteSpace=wrap;rounded=0;" vertex="1" parent="1">
          <mxGeometry x="9" y="39" width="60" height="30" as="geometry" />
        </mxCell>
      </root>
    </mxGraphModel>
  </diagram>
</mxfile>
